# xmcd
#
# Track frame offsets:
# 150
# 13237
# 26925
# 39787
# 56325
# 67912
# 80025
# 92362
# 108562
# 119550
# 132562
# 145125
# 164737
# 174037
# 186750
# 200137
# 210037
# 222825
# 237112
# 253950
# 265087
# 273375
#
# Disc length: 3896 seconds
#
#
# Revision: 0
# Processed by: cddbd v1.4PL0 Copyright (c) Steve Scherf et al.
# Submitted via: FreeRIP 2.35 
#
DISCID=3f0f3616
DTITLE=Vern Williams Band - Bluegrass From the Gold Country
DYEAR=1996
DGENRE=Bluegrass
TTITLE0=Cabin On A Mountain
TTITLE1=Come Back To Me In My Dreams
TTITLE2=When Springtime Comes Again
TTITLE3=Cowboy Jack
TTITLE4=Til The Day I Die
TTITLE5=Field Of Flowers
TTITLE6=Oh Susannah
TTITLE7=Down Among The Budded Roses
TTITLE8=Darling Nellie
TTITLE9=The Old Home Town
TTITLE10=Old Kentucky Home
TTITLE11=Clinch Mountain Home
TTITLE12=Black Eyed Susie
TTITLE13=I'm Walking The Dog
TTITLE14=Foggy Mountain Top
TTITLE15=Who's Going Down To Town
TTITLE16=Thinking Of Home
TTITLE17=Picture On The Wall
TTITLE18=Old Black Joe
TTITLE19=Arkansas Traveler
TTITLE20=You'd Better Get Right
TTITLE21=Old Folks At Home
EXTD=Rounder CD 0131
EXTT0=
EXTT1=
EXTT2=
EXTT3=
EXTT4=
EXTT5=
EXTT6=
EXTT7=
EXTT8=
EXTT9=
EXTT10=
EXTT11=
EXTT12=
EXTT13=
EXTT14=
EXTT15=
EXTT16=
EXTT17=
EXTT18=
EXTT19=
EXTT20=
EXTT21=
PLAYORDER=
